<?xml version="1.0" encoding="iso-8859-1"?>
<!-- Generator: Adobe Illustrator 22.1.0, SVG Export Plug-In . SVG Version: 6.00 Build 0)  -->

<svg version="1.1" id="&#x421;&#x43B;&#x43E;&#x439;_1"
 xmlns="http://www.w3.org/2000/svg" xmlns:xlink="http://www.w3.org/1999/xlink" x="0px" y="0px" viewBox="0 0 46.4 46.4" xml:space="preserve">
 <style>
     .hover:hover{
        fill:#fff;
     }
 </style>
  <path class="hover"  d="M40.6,38.6c3.6-4.1,5.8-9.5,5.8-15.4c0-6.1-2.4-11.7-6.3-15.9c0,0,0,0,0,0C36,3,30.3,0.2,24,0l-0.5,0c-0.1,0-0.2,0-0.4,0
    c-0.1,0-0.2,0-0.4,0l-0.5,0c-6.3,0.2-12,3-16.1,7.3c0,0,0,0,0,0c0,0,0,0,0,0C2.4,11.5,0,17.1,0,23.2c0,5.9,2.2,11.3,5.8,15.4
    c0,0,0,0,0,0c0,0,0,0,0.1,0c4.1,4.6,9.9,7.5,16.5,7.7l0.5,0c0.1,0,0.2,0,0.4,0c0.1,0,0.2,0,0.4,0l0.4,0h0
    C30.6,46.2,36.4,43.2,40.6,38.6C40.5,38.6,40.5,38.6,40.6,38.6C40.5,38.6,40.5,38.6,40.6,38.6L40.6,38.6z M1.6,24h9.6
    c0.1,3.4,0.8,6.7,1.9,9.8c-2.3,0.8-4.5,1.9-6.5,3.3C3.7,33.5,1.8,29,1.6,24L1.6,24z M7.1,8.8c2,1.3,4.1,2.3,6.3,3.1
    c-1.4,3.3-2.1,6.8-2.2,10.5H1.6C1.8,17.2,3.8,12.5,7.1,8.8L7.1,8.8z M44.8,22.4h-9.6c-0.1-3.6-0.8-7.2-2.2-10.5
    c2.2-0.8,4.3-1.8,6.3-3.1C42.6,12.5,44.6,17.2,44.8,22.4L44.8,22.4z M22.4,12c-2.3-0.1-4.6-0.4-6.8-1c1.6-3.3,3.9-6.3,6.8-8.8V12z
     M22.4,13.6v8.8h-9.6c0.1-3.5,0.8-6.9,2.1-10C17.4,13.1,19.9,13.5,22.4,13.6L22.4,13.6z M24,13.6c2.5-0.1,5-0.5,7.4-1.1
    c1.3,3.1,2,6.5,2.1,10H24V13.6z M24,12V2.1c2.9,2.5,5.2,5.5,6.8,8.8C28.6,11.6,26.3,11.9,24,12L24,12z M32.3,10.5
    c-1.5-3.2-3.7-6.2-6.3-8.7c4.7,0.6,8.9,2.7,12.1,5.9C36.3,8.8,34.4,9.8,32.3,10.5L32.3,10.5z M14.1,10.5c-2-0.7-4-1.6-5.8-2.8
    c3.2-3.1,7.5-5.2,12.1-5.9C17.7,4.3,15.6,7.2,14.1,10.5L14.1,10.5z M12.8,24h9.6v8c-2.6,0.1-5.2,0.5-7.7,1.2
    C13.5,30.3,12.9,27.2,12.8,24L12.8,24z M22.4,33.6v10.7c-3.1-2.7-5.5-5.9-7.1-9.5C17.6,34.1,20,33.7,22.4,33.6L22.4,33.6z M24,44.3
    V33.6c2.4,0.1,4.8,0.4,7.1,1.1C29.5,38.4,27.1,41.6,24,44.3L24,44.3z M24,32v-8h9.6c-0.1,3.2-0.7,6.3-1.9,9.3
    C29.2,32.5,26.6,32.1,24,32L24,32z M35.2,24h9.6c-0.2,5-2,9.5-5,13.1c-2-1.4-4.2-2.5-6.5-3.3C34.4,30.7,35.1,27.4,35.2,24L35.2,24z
     M7.8,38.3c1.9-1.3,3.9-2.3,6-3c1.6,3.5,3.8,6.7,6.6,9.4C15.5,44,11.1,41.7,7.8,38.3L7.8,38.3z M26,44.6c2.8-2.7,5.1-5.9,6.6-9.4
    c2.1,0.8,4.1,1.8,6,3C35.3,41.7,30.9,44,26,44.6L26,44.6z M26,44.6"/>
</svg>