<?xml version="1.0" encoding="iso-8859-1"?>
<!-- Generator: Adobe Illustrator 22.1.0, SVG Export Plug-In . SVG Version: 6.00 Build 0)  -->
<svg version="1.1" id="&#x421;&#x43B;&#x43E;&#x439;_1"
	 xmlns="http://www.w3.org/2000/svg" xmlns:xlink="http://www.w3.org/1999/xlink" x="0px" y="0px" viewBox="0 0 392.5 365.8"
	 style="enable-background:new 0 0 392.5 365.8;" xml:space="preserve">
<g>
	<path style="fill:#2C2F33;" d="M261.4,136.5c11.8,0,21.4-9.6,21.4-21.4V21.4c0-11.8-9.6-21.4-21.4-21.4H131
		c-11.8,0-21.4,9.6-21.4,21.4V115c0,11.8,9.6,21.4,21.4,21.4h57.3v17.9H170c-4.4,0-7.9,3.5-7.9,7.9c0,4.4,3.5,7.9,7.9,7.9h52.5
		c4.4,0,7.9-3.5,7.9-7.9c0-4.4-3.5-7.9-7.9-7.9h-18.3v-17.9H261.4z M131,120.6c-3.1,0-5.6-2.5-5.6-5.6V21.4c0-3.1,2.5-5.6,5.6-5.6
		h130.3c3.1,0,5.6,2.5,5.6,5.6V115c0,3.1-2.5,5.6-5.6,5.6H131z M131,120.6"/>
	<path style="fill:#2C2F33;" d="M151.8,195.6H21.4C9.6,195.6,0,205.2,0,217v93.6c0,11.8,9.6,21.4,21.4,21.4h57.3V350H60.4
		c-4.4,0-7.9,3.5-7.9,7.9c0,4.4,3.5,7.9,7.9,7.9h52.5c4.4,0,7.9-3.5,7.9-7.9c0-4.4-3.5-7.9-7.9-7.9H94.6v-17.9h57.3
		c11.8,0,21.4-9.6,21.4-21.4V217C173.3,205.3,163.6,195.6,151.8,195.6L151.8,195.6z M157.4,310.7c0,3.1-2.5,5.6-5.6,5.6H21.4
		c-3.1,0-5.6-2.5-5.6-5.6v-93.6c0-3.1,2.5-5.6,5.6-5.6h130.3c3.1,0,5.6,2.5,5.6,5.6L157.4,310.7L157.4,310.7z M157.4,310.7"/>
	<path style="fill:#2C2F33;" d="M371,195.6H240.6c-11.8,0-21.4,9.6-21.4,21.4v93.6c0,11.8,9.6,21.4,21.4,21.4h57.3V350h-18.3
		c-4.4,0-7.9,3.5-7.9,7.9c0,4.4,3.5,7.9,7.9,7.9h52.5c4.4,0,7.9-3.5,7.9-7.9c0-4.4-3.5-7.9-7.9-7.9h-18.3v-17.9H371
		c11.8,0,21.4-9.6,21.4-21.4V217C392.5,205.3,382.8,195.6,371,195.6L371,195.6z M376.6,310.7c0,3.1-2.5,5.6-5.6,5.6H240.6
		c-3.1,0-5.6-2.5-5.6-5.6v-93.6c0-3.1,2.5-5.6,5.6-5.6H371c3.1,0,5.6,2.5,5.6,5.6L376.6,310.7L376.6,310.7z M376.6,310.7"/>
	<path style="fill:#2C2F33;" d="M22.2,55.7v106.6c0,4.4,3.5,7.9,7.9,7.9c4.4,0,7.9-3.5,7.9-7.9V63.6h42.7c4.4,0,7.9-3.5,7.9-7.9
		c0-4.4-3.5-7.9-7.9-7.9H30.1C25.8,47.8,22.2,51.4,22.2,55.7L22.2,55.7z M22.2,55.7"/>
	<path style="fill:#2C2F33;" d="M362.4,170.3c4.4,0,7.9-3.5,7.9-7.9V55.7c0-4.4-3.5-7.9-7.9-7.9h-50.6c-4.4,0-7.9,3.5-7.9,7.9
		c0,4.4,3.5,7.9,7.9,7.9h42.7v98.7C354.5,166.7,358,170.3,362.4,170.3L362.4,170.3z M362.4,170.3"/>
</g>
</svg>
