<?xml version="1.0" encoding="iso-8859-1"?>
<!-- Generator: Adobe Illustrator 22.1.0, SVG Export Plug-In . SVG Version: 6.00 Build 0)  -->
<svg version="1.1" id="&#x421;&#x43B;&#x43E;&#x439;_1"
	 xmlns="http://www.w3.org/2000/svg" xmlns:xlink="http://www.w3.org/1999/xlink" x="0px" y="0px" viewBox="0 0 179.2 180.9"
	 style="enable-background:new 0 0 179.2 180.9;" xml:space="preserve">
<g>
	<path d="M32.7,99.6c0.3,0,0.7-0.1,1-0.2c1.7-0.6,2.7-2.4,2.1-4.2c-1.5-4.7-2.3-9.6-2.3-14.6c0-26,21.2-47.2,47.2-47.2
		c4.9,0,9.7,0.7,14.4,2.2c1.7,0.6,3.6-0.4,4.1-2.1c0.6-1.7-0.4-3.6-2.1-4.1c-5.3-1.7-10.8-2.5-16.4-2.5C51,26.9,26.9,51,26.9,80.7
		c0,5.7,0.9,11.3,2.6,16.7C30,98.8,31.3,99.6,32.7,99.6L32.7,99.6z M32.7,99.6"/>
	<path d="M6.6,80.7c0-40.9,33.2-74.1,74.1-74.1c7.5,0,14.8,1.1,21.9,3.3c1.7,0.5,3.6-0.4,4.1-2.2c0.5-1.7-0.4-3.6-2.2-4.1
		C96.9,1.2,88.8,0,80.7,0C36.2,0,0,36.2,0,80.7c0,7.3,1,14.4,2.9,21.4c0.4,1.5,1.7,2.4,3.2,2.4c0.3,0,0.6,0,0.9-0.1
		c1.8-0.5,2.8-2.3,2.3-4.1C7.5,94,6.6,87.4,6.6,80.7L6.6,80.7z M6.6,80.7"/>
	<path d="M174.6,143.6l-13.2,13.2l-24-24c25.6-28.9,24.6-73.2-3-100.8l-2.3-2.3L98.5,63.2c-10.1-7.6-24.7-6.5-34.1,2.9
		c-9.4,9.4-10.4,24.1-2.9,34.1l-33.6,33.5l2.3,2.3c14.4,14.4,33.2,21.5,52.1,21.5c18.2,0,36.3-6.8,50.5-20.1l23.9,23.9l-14.8,14.8
		l4.7,4.7l32.7-32.7L174.6,143.6z M69,70.7c6.9-6.9,17.3-7.8,24.8-2.8L66.2,95.5C61.2,88,62.2,77.6,69,70.7L69,70.7z M129.7,131.4
		c-25.4,25.4-66.1,26.1-92.4,2.3L132,39C155.9,65.3,155.1,106,129.7,131.4L129.7,131.4z M129.7,131.4"/>
</g>
</svg>
