<?xml version="1.0" encoding="iso-8859-1"?>
<!-- Generator: Adobe Illustrator 22.1.0, SVG Export Plug-In . SVG Version: 6.00 Build 0)  -->
<svg version="1.1" id="Capa_1" xmlns="http://www.w3.org/2000/svg" xmlns:xlink="http://www.w3.org/1999/xlink" x="0px" y="0px"
	 viewBox="-49 141 512 512" style="enable-background:new -49 141 512 512;" xml:space="preserve">
<path d="M455.5,389.5H334.7v-17.1h32.6c4.1,0,7.5-3.4,7.5-7.5s-3.4-7.5-7.5-7.5h-32.6v-17.1h22.6c8.4,0,16.4-3.3,22.3-9.2l49.3-49.3
	c3.2,1.6,6.8,2.5,10.5,2.5c6.3,0,12.2-2.4,16.6-6.9c4.4-4.4,6.9-10.4,6.9-16.6c0-6.3-2.4-12.2-6.9-16.6c-4.4-4.4-10.4-6.9-16.6-6.9
	s-12.2,2.4-16.6,6.9c-4.4,4.4-6.9,10.4-6.9,16.6c0,3.7,0.9,7.3,2.5,10.5l-49.3,49.3c-3.1,3.1-7.3,4.8-11.7,4.8h-22.6v-16.5
	c0-21.8-17.7-39.6-39.6-39.6h-16.5v-66.4c9.3-3.1,16-11.9,16-22.3c0-13-10.6-23.5-23.5-23.5s-23.5,10.6-23.5,23.5
	c0,10.4,6.7,19.2,16,22.3v66.4h-17.1v-32.6c0-4.1-3.4-7.5-7.5-7.5s-7.5,3.4-7.5,7.5v32.6h-17.1V148.5c0-4.1-3.4-7.5-7.5-7.5
	s-7.5,3.4-7.5,7.5v120.8h-17.1v-32.6c0-4.1-3.4-7.5-7.5-7.5s-7.5,3.4-7.5,7.5v32.6h-17.1v-22.6c0-8.4-3.3-16.3-9.2-22.3L91.8,175
	c4.4-8.8,2.9-19.8-4.4-27.1c-9.2-9.2-24.1-9.2-33.3,0c-9.2,9.2-9.2,24.1,0,33.3c4.6,4.6,10.6,6.9,16.6,6.9c3.6,0,7.2-0.8,10.5-2.5
	l49.3,49.3c3.1,3.1,4.8,7.3,4.8,11.7v22.6h-16.5c-3.3,0-6.7,0.4-9.9,1.2c-4,1-6.4,5.1-5.4,9.1s5.1,6.4,9.1,5.4
	c2-0.5,4.1-0.8,6.1-0.8h176.4c13.5,0,24.6,11,24.6,24.6v176.4c0,2.1-0.3,4.1-0.8,6.1c-1,4,1.4,8.1,5.4,9.1c0.6,0.2,1.3,0.2,1.9,0.2
	c3.3,0,6.4-2.2,7.3-5.6c0.8-3.2,1.2-6.5,1.2-9.9v-16.5h66.4c3.1,9.3,11.9,16,22.3,16c13,0,23.5-10.6,23.5-23.5s-10.6-23.5-23.5-23.5
	c-10.4,0-19.2,6.7-22.3,16h-66.4v-17.1h32.6c4.1,0,7.5-3.4,7.5-7.5s-3.4-7.5-7.5-7.5h-32.6v-17.1h120.8c4.1,0,7.5-3.4,7.5-7.5
	S459.6,389.5,455.5,389.5z M433.4,254.7c1.6-1.6,3.8-2.5,6-2.5s4.4,0.9,6,2.5s2.5,3.8,2.5,6c0,2.3-0.9,4.4-2.5,6s-3.8,2.5-6,2.5
	s-4.4-0.9-6-2.5l0,0c-1.6-1.6-2.5-3.8-2.5-6C430.9,258.4,431.8,256.3,433.4,254.7z M271.1,172c4.7,0,8.5,3.8,8.5,8.5
	c0,4.7-3.8,8.5-8.5,8.5s-8.5-3.8-8.5-8.5C262.6,175.9,266.4,172,271.1,172z M64.7,170.6c-3.3-3.3-3.3-8.7,0-12.1
	c1.7-1.7,3.8-2.5,6-2.5c2.2,0,4.4,0.8,6,2.5c3.3,3.3,3.3,8.7,0,12.1l0,0C73.4,173.9,68,173.9,64.7,170.6z M423.4,452.6
	c4.7,0,8.5,3.8,8.5,8.5c0,4.7-3.8,8.5-8.5,8.5s-8.5-3.8-8.5-8.5C414.9,456.4,418.7,452.6,423.4,452.6z"/>
<path d="M332.8,608.4l-49.3-49.3c-3.1-3.1-4.8-7.3-4.8-11.7v-22.6h16.5c3.3,0,6.7-0.4,9.9-1.2c4-1,6.4-5.1,5.4-9.1
	c-1-4-5.1-6.4-9.1-5.4c-2,0.5-4.1,0.8-6.1,0.8H118.8c-13.5,0-24.6-11-24.6-24.6V308.8c0-2.1,0.3-4.2,0.8-6.1c1-4-1.4-8.1-5.4-9.1
	c-4-1-8.1,1.4-9.1,5.4c-0.8,3.2-1.2,6.5-1.2,9.9v16.5H12.9c-3.1-9.3-11.9-16-22.3-16c-13,0-23.5,10.6-23.5,23.5
	c0,13,10.6,23.5,23.5,23.5c10.4,0,19.2-6.7,22.3-16h66.4v17.1H46.7c-4.1,0-7.5,3.4-7.5,7.5c0,4.1,3.4,7.5,7.5,7.5h32.6v17.1H-41.5
	c-4.1,0-7.5,3.4-7.5,7.5s3.4,7.5,7.5,7.5H79.3v17.1H46.7c-4.1,0-7.5,3.4-7.5,7.5s3.4,7.5,7.5,7.5h32.6v17.1H56.6
	c-8.4,0-16.3,3.3-22.3,9.2L-15,512.2c-3.2-1.6-6.8-2.5-10.5-2.5c-6.3,0-12.2,2.4-16.6,6.9c-4.4,4.4-6.9,10.4-6.9,16.6
	s2.4,12.2,6.9,16.6c4.4,4.4,10.4,6.9,16.6,6.9s12.2-2.4,16.6-6.9c4.4-4.4,6.9-10.4,6.9-16.6c0-3.7-0.9-7.3-2.5-10.5l49.3-49.3
	c3.1-3.1,7.3-4.8,11.7-4.8h22.6v16.5c0,21.8,17.7,39.6,39.6,39.6h16.5v66.4c-9.3,3.1-16,11.9-16,22.3c0,13,10.6,23.5,23.5,23.5
	s23.5-10.6,23.5-23.5c0-10.4-6.7-19.2-16-22.3v-66.4h17.1v32.6c0,4.1,3.4,7.5,7.5,7.5s7.5-3.4,7.5-7.5v-32.6h17.1v120.8
	c0,4.1,3.4,7.5,7.5,7.5s7.5-3.4,7.5-7.5V524.7h17.1v32.6c0,4.1,3.4,7.5,7.5,7.5s7.5-3.4,7.5-7.5v-32.6h17.1v22.6
	c0,8.4,3.3,16.4,9.2,22.3l49.3,49.3c-4.4,8.8-2.9,19.8,4.4,27.1c4.6,4.6,10.6,6.9,16.6,6.9s12.1-2.3,16.6-6.9
	c9.2-9.2,9.2-24.1,0-33.3C352.6,605.5,341.6,604,332.8,608.4z M-9.4,341.4c-4.7,0-8.5-3.8-8.5-8.5c0-4.7,3.8-8.5,8.5-8.5
	s8.5,3.8,8.5,8.5C-0.9,337.6-4.7,341.4-9.4,341.4z M-19.4,539.3c-1.6,1.6-3.8,2.5-6,2.5s-4.4-0.9-6-2.5c-1.6-1.6-2.5-3.8-2.5-6
	c0-2.3,0.9-4.4,2.5-6s3.8-2.5,6-2.5s4.4,0.9,6,2.5l0,0c1.6,1.6,2.5,3.8,2.5,6C-16.9,535.6-17.8,537.7-19.4,539.3z M142.9,622
	c-4.7,0-8.5-3.8-8.5-8.5s3.8-8.5,8.5-8.5s8.5,3.8,8.5,8.5S147.6,622,142.9,622z M349.3,635.5c-3.3,3.3-8.7,3.3-12.1,0
	c-3.3-3.3-3.3-8.7,0-12.1c1.7-1.7,3.8-2.5,6-2.5s4.4,0.8,6,2.5C352.6,626.8,352.6,632.2,349.3,635.5z"/>
<g>
	<path d="M294.7,284.3c13.8,0,25.1,11.2,25.1,25.1v175.3c0,13.8-11.2,25.1-25.1,25.1H119.3c-13.8,0-25.1-11.2-25.1-25.1V309.3
		c0-13.8,11.2-25.1,25.1-25.1H294.7 M294.7,269.3H119.3c-22.1,0-40.1,17.9-40.1,40.1v175.3c0,22.1,17.9,40.1,40.1,40.1h175.3
		c22.1,0,40.1-17.9,40.1-40.1V309.3C334.7,287.2,316.8,269.3,294.7,269.3L294.7,269.3z"/>
</g>
</svg>
