<?xml version="1.0" encoding="iso-8859-1"?>
<!-- Generator: Adobe Illustrator 22.1.0, SVG Export Plug-In . SVG Version: 6.00 Build 0)  -->
<svg version="1.1" id="&#x421;&#x43B;&#x43E;&#x439;_1"
	 xmlns="http://www.w3.org/2000/svg" xmlns:xlink="http://www.w3.org/1999/xlink" x="0px" y="0px" viewBox="0 0 55 70"
	 style="enable-background:new 0 0 55 70;" xml:space="preserve">
<g>
	<polygon style="fill:#FFFFFF;" points="1,37.3 1,4 48.1,4 36.2,20.7 48.1,37.3 	"/>
	<path style="fill:#494B52;" d="M46.1,5L35.8,19.5L35,20.7l0.8,1.2l10.3,14.5H2V5H46.1 M50,3H0v35.3h50L37.5,20.7L50,3L50,3z"/>
</g>
<g>
	<polygon style="fill:#5697D3;" points="5.5,32.7 5.5,8.7 39.6,8.7 31,20.7 39.6,32.7 	"/>
	<path style="fill:#494B52;" d="M37.6,9.7l-7,9.8l-0.8,1.2l0.8,1.2l7,9.8H6.5v-22H37.6 M41.5,7.7h-37v26h37l-9.3-13L41.5,7.7
		L41.5,7.7z"/>
</g>
<g>
	<rect style="fill:#5697D3;" width="2" height="70"/>
	<polygon style="fill:#494B52;" points="2,0 0,0 0,70 2,70 2,0 	"/>
</g>
</svg>
