<?xml version="1.0" encoding="iso-8859-1"?>
<!-- Generator: Adobe Illustrator 22.1.0, SVG Export Plug-In . SVG Version: 6.00 Build 0)  -->
<svg version="1.1" id="&#x421;&#x43B;&#x43E;&#x439;_1"
	 xmlns="http://www.w3.org/2000/svg" xmlns:xlink="http://www.w3.org/1999/xlink" x="0px" y="0px" viewBox="0 0 55 70"
	 style="enable-background:new 0 0 55 70;" xml:space="preserve">
<g>
	<path style="display:none;fill:#5697D3;stroke:#494B52;stroke-width:2;stroke-linejoin:round;stroke-miterlimit:10;" d="M55,24.5
		c0,13.6-10.9,24.5-24.4,24.5c-13.5,0-24.4-11-24.4-24.5S17,0,30.6,0C44.1,0,55,11,55,24.5L55,24.5z M55,24.5"/>
	<g>
		<ellipse style="fill:#5697D3;" cx="30.6" cy="24.5" rx="22.5" ry="22.5"/>
	</g>
	<path style="fill:#494B52;" d="M53,45.4L48.7,41L47,42.8l2.6,2.6c-11,10.2-28.2,9.9-38.9-0.8c-5.3-5.3-8.2-12.4-8.2-20
		c0-7.1,2.6-13.9,7.4-19.1l2.6,2.6l1.7-1.7L9.8,2L8.9,2.9C3.2,8.6,0,16.3,0,24.5c0,8.2,3.2,15.9,8.9,21.7c5.5,5.5,12.7,8.6,20.4,8.9
		v12.3c0,0.7,0.6,1.2,1.2,1.2c0.7,0,1.2-0.6,1.2-1.2V55.2c7.7-0.3,14.9-3.5,20.4-8.9L53,45.4z M53,45.4"/>
	<rect x="18.3" y="67.5" style="fill:#494B52;" width="24.4" height="2.5"/>
	<path style="fill:#FFFFFF;" d="M16.8,5.6c0,0.4,0,0.8,0,1.2c0,0.2,0,0.5,0.1,0.7c1.7,3.6,3.8,9.7,7.4,11.1c1.8,0.7,3.4,0.4,5.1,1.3
		c0.2,0.1,0.4,0.3,0.5,0.5c0.9,1.3,0.4,3.1,1.2,3.5c0.7,0.4,1.1,1.1,0.8,1.8c-1.2,2.9-0.2,6.2,2.6,8.4c1.9,1.6,0.3,5.3-1.3,8.2
		c-0.6,1,0.4,2.2,1.6,1.8c1.8-0.6,3.2-1.5,4.9-3c2.4-2.1,3-4.4,5.4-6.2c0,0,0,0,0.1-0.1c0.6-1.8,2.5-5.8,0.6-6.8
		c-1.8-0.9-2.5-3.7-4.3-5.5c-0.2-0.2-0.5-0.3-0.8-0.4c-2.2-0.3-3.1-1.9-4.6-0.8c-1.1,0.8-2.3,0.3-2.7-1c-0.1-0.4-0.3-0.8-1.1-1.1
		c-0.6-0.2-0.9-0.9-0.7-1.5c0,0,0,0,0,0c0.3-0.8-1.3-0.7-2.2-0.5c-0.2,0,0.6-0.9,0.3-0.7c-1,0.6-2.3-0.4-2.2-1.6
		c0.1-1.2,0.3-1.1,2.3-1.4c2.2-1,3.3-0.3,3.2,2.2c1.4,0.2,1.8-0.4,1.4-1.8c-0.1-0.4,0-0.9,0.2-1.2c2.5-3.3,4.6-4.7,8.4-6
		c0.6-0.2,1.3-1,0.8-1.3C40,2.7,35.5,1.1,30.6,1.1C25.5,1.1,20.7,2.8,16.8,5.6L16.8,5.6z M16.8,7.1"/>
	<g>
		<path style="fill:#494B52;" d="M30.6,2C42.9,2,53,12.1,53,24.5S42.9,47.1,30.6,47.1S8.1,37,8.1,24.5S18.2,2,30.6,2 M30.6,0
			C17,0,6.1,11,6.1,24.5S17,49.1,30.6,49.1S55,38.1,55,24.5S44.1,0,30.6,0L30.6,0z"/>
	</g>
</g>
</svg>
