<?xml version="1.0" encoding="iso-8859-1"?>
<!-- Generator: Adobe Illustrator 22.1.0, SVG Export Plug-In . SVG Version: 6.00 Build 0)  -->
<svg version="1.1" id="_x31_" xmlns="http://www.w3.org/2000/svg" xmlns:xlink="http://www.w3.org/1999/xlink" x="0px" y="0px"
	 viewBox="0 0 296.8 40.9" style="enable-background:new 0 0 296.8 40.9;" xml:space="preserve">
<g id="&#x421;&#x43B;&#x43E;&#x439;_4__x28_&#x43A;&#x43E;&#x43F;&#x438;&#x44F;4_x29_">
	<g>
		<path style="fill:#00A8EC;" d="M74.3,8.1h11.2c2,0,3.9,0.3,5.6,0.8c1.7,0.6,3.3,1.4,4.5,2.5c1.3,1.1,2.3,2.5,3,4.2
			c0.7,1.7,1.1,3.6,1.1,5.7c0,2-0.3,3.8-0.9,5.4c-0.6,1.6-1.5,3-2.8,4.2c-1.2,1.2-2.7,2.1-4.5,2.7c-1.8,0.6-3.8,1-6.1,1H74.3V8.1z
			 M85.4,28.5c2.3,0,4.1-0.6,5.3-1.8c1.2-1.2,1.8-3,1.8-5.3c0-1.1-0.1-2.1-0.4-3c-0.3-0.9-0.7-1.6-1.3-2.3c-0.6-0.6-1.3-1.1-2.2-1.4
			c-0.9-0.3-1.9-0.5-3.1-0.5h-3.8v14.3H85.4z"/>
		<path style="fill:#00A8EC;" d="M107.7,14.2h-7V8.1H122v6.1h-7v20.4h-7.3V14.2z"/>
		<path style="fill:#00A8EC;" d="M143.6,18.3c-0.2-0.8-0.6-1.5-1-2.1c-0.4-0.6-1-1.1-1.6-1.5c-0.6-0.4-1.2-0.7-1.9-0.9
			c-0.7-0.2-1.4-0.3-2.1-0.3c-1,0-2,0.2-2.9,0.6c-0.9,0.4-1.7,0.9-2.3,1.6c-0.7,0.7-1.2,1.5-1.6,2.5c-0.4,1-0.6,2-0.6,3.1
			c0,1.1,0.2,2.2,0.6,3.1c0.4,1,0.9,1.8,1.6,2.5c0.7,0.7,1.4,1.2,2.3,1.6c0.9,0.4,1.8,0.6,2.9,0.6c0.7,0,1.4-0.1,2.1-0.3
			c0.7-0.2,1.3-0.5,1.9-0.9c0.6-0.4,1.1-0.9,1.6-1.5c0.4-0.6,0.8-1.3,1-2.1h7.5c-0.2,1.2-0.6,2.3-1.1,3.3c-0.5,1-1.1,1.9-1.9,2.7
			c-0.7,0.8-1.5,1.5-2.4,2.1c-0.9,0.6-1.8,1.1-2.8,1.5c-1,0.4-2,0.7-3,0.9c-1,0.2-2,0.3-2.9,0.3c-1.4,0-2.7-0.2-3.9-0.5
			c-1.2-0.3-2.4-0.8-3.5-1.4c-1.1-0.6-2.1-1.3-3-2.2c-0.9-0.9-1.7-1.8-2.3-2.8c-0.6-1-1.1-2.1-1.5-3.3c-0.3-1.2-0.5-2.4-0.5-3.7
			c0-1.3,0.2-2.5,0.5-3.7c0.3-1.2,0.8-2.3,1.5-3.3c0.6-1,1.4-2,2.3-2.8c0.9-0.8,1.9-1.6,3-2.2c1.1-0.6,2.2-1.1,3.5-1.4
			s2.6-0.5,3.9-0.5c1,0,1.9,0.1,2.9,0.3c1,0.2,2,0.5,3,0.9c1,0.4,1.9,0.9,2.8,1.5c0.9,0.6,1.7,1.3,2.4,2.1c0.7,0.8,1.4,1.7,1.9,2.8
			c0.5,1,0.9,2.2,1.1,3.4L143.6,18.3z"/>
		<path style="fill:#474A51;" d="M173,20.2h13.8c0.1,2.3-0.1,4.3-0.8,6.2c-0.6,1.9-1.6,3.4-2.8,4.8c-1.2,1.3-2.7,2.3-4.4,3.1
			c-1.7,0.7-3.6,1.1-5.6,1.1c-1.4,0-2.7-0.2-3.9-0.5c-1.2-0.3-2.4-0.8-3.5-1.4c-1.1-0.6-2.1-1.3-3-2.2c-0.9-0.9-1.7-1.8-2.3-2.8
			c-0.6-1-1.1-2.1-1.5-3.3c-0.3-1.2-0.5-2.4-0.5-3.7c0-1.3,0.2-2.5,0.5-3.7c0.3-1.2,0.8-2.3,1.5-3.3c0.6-1,1.4-2,2.3-2.8
			c0.9-0.8,1.9-1.6,3-2.2c1.1-0.6,2.2-1.1,3.5-1.4s2.6-0.5,3.9-0.5c2,0,4,0.4,5.7,1.1c1.8,0.7,3.3,1.8,4.7,3.1l-4.8,4.8
			c-0.6-0.9-1.4-1.5-2.4-2.1c-1-0.5-2.1-0.8-3.2-0.8c-1,0-2,0.2-2.9,0.6c-0.9,0.4-1.7,0.9-2.3,1.6c-0.7,0.7-1.2,1.5-1.6,2.5
			c-0.4,1-0.6,2-0.6,3.1c0,1.1,0.2,2.2,0.6,3.1c0.4,1,0.9,1.8,1.6,2.5c0.7,0.7,1.4,1.2,2.3,1.6c0.9,0.4,1.8,0.6,2.9,0.6
			c1.8,0,3.2-0.3,4.2-1c1-0.7,1.6-1.6,2-2.8H173L173,20.2z"/>
		<path style="fill:#474A51;" d="M200.5,26.4h-2.5v8.2h-7.4V8.1h11.8c1.4,0,2.8,0.2,4,0.7c1.2,0.4,2.3,1.1,3.1,1.9
			c0.9,0.8,1.6,1.8,2.1,2.9c0.5,1.1,0.7,2.4,0.7,3.7c0,0.9-0.1,1.8-0.3,2.6c-0.2,0.8-0.5,1.5-0.9,2.2c-0.4,0.7-0.9,1.3-1.5,1.8
			c-0.6,0.5-1.2,1-1.9,1.3l5.4,9.4h-8.4L200.5,26.4z M202.2,20.3c0.4,0,0.8-0.1,1.1-0.2c0.4-0.1,0.7-0.3,0.9-0.6
			c0.3-0.3,0.5-0.6,0.6-0.9c0.1-0.4,0.2-0.8,0.2-1.2c0-0.4-0.1-0.8-0.2-1.2c-0.1-0.4-0.4-0.7-0.6-1c-0.3-0.3-0.6-0.5-0.9-0.6
			c-0.3-0.2-0.7-0.2-1.1-0.2h-4.1v6.1H202.2z"/>
		<path style="fill:#474A51;" d="M214.8,21.3c0-1.3,0.2-2.5,0.5-3.7c0.3-1.2,0.8-2.3,1.5-3.3c0.6-1,1.4-2,2.3-2.8
			c0.9-0.8,1.9-1.6,3-2.2c1.1-0.6,2.2-1.1,3.5-1.4s2.6-0.5,3.9-0.5c1.3,0,2.6,0.2,3.9,0.5s2.4,0.8,3.5,1.4c1.1,0.6,2.1,1.3,3,2.2
			c0.9,0.8,1.7,1.8,2.3,2.8c0.6,1,1.1,2.1,1.5,3.3c0.4,1.2,0.5,2.4,0.5,3.7c0,1.3-0.2,2.5-0.5,3.7c-0.4,1.2-0.8,2.3-1.5,3.3
			c-0.6,1-1.4,2-2.3,2.8c-0.9,0.9-1.9,1.6-3,2.2c-1.1,0.6-2.2,1.1-3.5,1.4c-1.2,0.3-2.5,0.5-3.9,0.5c-1.4,0-2.7-0.2-3.9-0.5
			c-1.2-0.3-2.4-0.8-3.5-1.4c-1.1-0.6-2.1-1.3-3-2.2c-0.9-0.9-1.7-1.8-2.3-2.8c-0.6-1-1.1-2.1-1.5-3.3
			C215,23.8,214.8,22.6,214.8,21.3z M222.2,21.3c0,1.1,0.2,2.2,0.6,3.1c0.4,1,0.9,1.8,1.6,2.5c0.7,0.7,1.4,1.2,2.3,1.6
			c0.9,0.4,1.8,0.6,2.9,0.6c1,0,2-0.2,2.9-0.6c0.9-0.4,1.7-0.9,2.3-1.6c0.7-0.7,1.2-1.5,1.6-2.5c0.4-1,0.6-2,0.6-3.1
			c0-1.1-0.2-2.2-0.6-3.1c-0.4-1-0.9-1.8-1.6-2.5c-0.7-0.7-1.4-1.2-2.3-1.6c-0.9-0.4-1.8-0.6-2.9-0.6c-1,0-2,0.2-2.9,0.6
			c-0.9,0.4-1.7,0.9-2.3,1.6c-0.7,0.7-1.2,1.5-1.6,2.5C222.4,19.2,222.2,20.2,222.2,21.3z"/>
		<path style="fill:#474A51;" d="M263.8,8.1h7.4v16.3c0,1.6-0.3,3-0.8,4.3c-0.6,1.3-1.4,2.5-2.4,3.4c-1,1-2.3,1.7-3.8,2.3
			c-1.5,0.5-3.1,0.8-5,0.8c-1.7,0-3.3-0.3-4.7-0.8c-1.5-0.5-2.7-1.2-3.8-2.2c-1.1-0.9-1.9-2.1-2.5-3.4c-0.6-1.3-0.9-2.9-0.9-4.5V8.1
			h7.3v16.4c0,0.7,0.1,1.3,0.3,1.9c0.2,0.6,0.5,1.1,0.9,1.5c0.4,0.4,0.9,0.8,1.5,1s1.2,0.4,2,0.4c0.7,0,1.4-0.1,2-0.4
			c0.6-0.2,1.1-0.6,1.4-1c0.4-0.4,0.7-0.9,0.9-1.5c0.2-0.6,0.3-1.2,0.3-1.9V8.1z"/>
		<path style="fill:#474A51;" d="M282.5,26.9v7.8h-7.4V8.1h11.7c1.4,0,2.8,0.2,4,0.7c1.2,0.5,2.3,1.1,3.1,2c0.9,0.8,1.6,1.8,2.1,3
			c0.5,1.2,0.7,2.4,0.7,3.8c0,1.4-0.2,2.7-0.7,3.8c-0.5,1.1-1.2,2.1-2,3c-0.9,0.8-1.9,1.5-3.1,1.9c-1.2,0.5-2.5,0.7-3.9,0.7H282.5z
			 M286.5,20.7c0.4,0,0.8-0.1,1.1-0.3c0.3-0.2,0.7-0.4,0.9-0.7c0.3-0.3,0.5-0.6,0.6-1c0.1-0.4,0.2-0.8,0.2-1.3
			c0-0.4-0.1-0.9-0.2-1.3c-0.1-0.4-0.4-0.7-0.6-1c-0.3-0.3-0.6-0.5-0.9-0.7c-0.3-0.2-0.7-0.3-1.1-0.3h-4.1v6.5H286.5z"/>
	</g>
	<g id="&#x421;&#x43B;&#x43E;&#x439;_2__x28_&#x43A;&#x43E;&#x43F;&#x438;&#x44F;7_x29_">
		<path style="fill:#474A51;" d="M41.2,16.1H19.8c-2.4,0-4.4,2-4.4,4.4c0,2.4,2,4.4,4.4,4.4H26v16h8.8v-16h6.3c2.4,0,4.4-2,4.4-4.4
			C45.6,18,43.6,16.1,41.2,16.1z"/>
		<path style="fill:#00A8EC;" d="M40.5,0h-6.4v8.8h6.4c6.4,0,11.6,5.2,11.6,11.6c0,6.2-5,11.4-11.1,11.6v8.8
			c11.1-0.3,20-9.3,20-20.5C60.9,9.2,51.7,0,40.5,0z"/>
		<path style="fill:#00A8EC;" d="M20,40.9v-8.8c-6.2-0.3-11.1-5.4-11.1-11.6c0-6.4,5.2-11.6,11.6-11.6h6.4V0h-6.4
			C9.2,0,0,9.2,0,20.5C0,31.6,8.9,40.7,20,40.9z"/>
	</g>
</g>
</svg>
