<?xml version="1.0" encoding="iso-8859-1"?>
<!-- Generator: Adobe Illustrator 22.1.0, SVG Export Plug-In . SVG Version: 6.00 Build 0)  -->
<svg version="1.1" id="&#x421;&#x43B;&#x43E;&#x439;_1"
	 xmlns="http://www.w3.org/2000/svg" xmlns:xlink="http://www.w3.org/1999/xlink" x="0px" y="0px" viewBox="0 0 55 70"
	 style="enable-background:new 0 0 55 70;" xml:space="preserve">
<g>
	<polygon style="fill:#FFFFFF;" points="27,59.5 15,68.1 15,34 39,34 39,68.1 	"/>
	<path style="fill:#494B52;" d="M38,35v31.1l-9.8-7L27,58.3l-1.2,0.8l-9.8,7V35H38 M40,33H14v37l13-9.3L40,70V33L40,33z"/>
</g>
<g>
	<polygon style="fill:#5697D3;" points="27,53.6 20,58.6 20,38.6 34,38.6 34,58.6 	"/>
	<path style="fill:#494B52;" d="M33,39.6v17.1l-4.8-3.5L27,52.4l-1.2,0.8L21,56.7V39.6H33 M35,37.6H19v23l8-5.8l8,5.8V37.6L35,37.6z
		"/>
</g>
<g>
	<circle style="fill:#FFFFFF;" cx="27" cy="25" r="24"/>
	<path style="fill:#494B52;" d="M27,2c12.7,0,23,10.3,23,23S39.7,48,27,48S4,37.7,4,25S14.3,2,27,2 M27,0C13.2,0,2,11.2,2,25
		s11.2,25,25,25s25-11.2,25-25S40.8,0,27,0L27,0z"/>
</g>
<g>
	<circle style="fill:#5697D3;" cx="27" cy="25" r="19"/>
	<path style="fill:#494B52;" d="M27,7c9.9,0,18,8.1,18,18s-8.1,18-18,18S9,34.9,9,25S17.1,7,27,7 M27,5C16,5,7,14,7,25s9,20,20,20
		s20-9,20-20S38,5,27,5L27,5z"/>
</g>
<g>
	
		<rect x="18.5" y="25.3" transform="matrix(0.7071 -0.7071 0.7071 0.7071 -15.7553 22.657)" style="fill:#FFFFFF;" width="2" height="10"/>
</g>
<g>
	
		<rect x="18.4" y="25.1" transform="matrix(0.7071 -0.7071 0.7071 0.7071 -9.8547 28.417)" style="fill:#FFFFFF;" width="22" height="2"/>
</g>
</svg>
